<mxfile host="app.diagrams.net" modified="2024-03-20T17:12:08.329Z" agent="Mozilla/5.0 (Windows NT 10.0; Win64; x64) AppleWebKit/537.36 (KHTML, like Gecko) Chrome/122.0.0.0 Safari/537.36" version="24.0.6" etag="AaTg39oCKnBUu4YF2i2g" type="device">
  <diagram id="eO8bi5-fhXPwVS2yJa1A" name="Página-1">
    <mxGraphModel dx="1120" dy="1698" grid="1" gridSize="10" guides="1" tooltips="1" connect="1" arrows="1" fold="1" page="1" pageScale="1" pageWidth="827" pageHeight="1169" math="0" shadow="0">
      <root>
        <mxCell id="0" />
        <mxCell id="1" parent="0" />
        <mxCell id="1iyHR0BKhRLeMjB69UhM-1" value="" style="ellipse;html=1;shape=startState;fillColor=#000000;strokeColor=#ff0000;" vertex="1" parent="1">
          <mxGeometry x="100" y="-670" width="30" height="30" as="geometry" />
        </mxCell>
        <mxCell id="1iyHR0BKhRLeMjB69UhM-2" value="" style="edgeStyle=orthogonalEdgeStyle;html=1;verticalAlign=bottom;endArrow=open;endSize=8;strokeColor=#ff0000;rounded=0;entryX=0.5;entryY=0;entryDx=0;entryDy=0;" edge="1" source="1iyHR0BKhRLeMjB69UhM-1" parent="1" target="1iyHR0BKhRLeMjB69UhM-3">
          <mxGeometry relative="1" as="geometry">
            <mxPoint x="115" y="-580" as="targetPoint" />
          </mxGeometry>
        </mxCell>
        <mxCell id="1iyHR0BKhRLeMjB69UhM-11" style="edgeStyle=orthogonalEdgeStyle;rounded=0;orthogonalLoop=1;jettySize=auto;html=1;entryX=0.5;entryY=0;entryDx=0;entryDy=0;" edge="1" parent="1" source="1iyHR0BKhRLeMjB69UhM-3" target="1iyHR0BKhRLeMjB69UhM-7">
          <mxGeometry relative="1" as="geometry" />
        </mxCell>
        <mxCell id="1iyHR0BKhRLeMjB69UhM-3" value="Cadastrar" style="rounded=1;whiteSpace=wrap;html=1;arcSize=40;fontColor=#000000;fillColor=#ffffc0;strokeColor=#ff0000;" vertex="1" parent="1">
          <mxGeometry x="55" y="-620" width="120" height="40" as="geometry" />
        </mxCell>
        <mxCell id="1iyHR0BKhRLeMjB69UhM-29" style="rounded=0;orthogonalLoop=1;jettySize=auto;html=1;exitX=1;exitY=0;exitDx=0;exitDy=0;entryX=0;entryY=0.5;entryDx=0;entryDy=0;" edge="1" parent="1" source="1iyHR0BKhRLeMjB69UhM-7" target="1iyHR0BKhRLeMjB69UhM-25">
          <mxGeometry relative="1" as="geometry">
            <Array as="points">
              <mxPoint x="200" y="-505" />
            </Array>
          </mxGeometry>
        </mxCell>
        <mxCell id="1iyHR0BKhRLeMjB69UhM-30" style="rounded=0;orthogonalLoop=1;jettySize=auto;html=1;entryX=0;entryY=0.5;entryDx=0;entryDy=0;exitX=0.794;exitY=0.733;exitDx=0;exitDy=0;exitPerimeter=0;" edge="1" parent="1" source="1iyHR0BKhRLeMjB69UhM-7" target="1iyHR0BKhRLeMjB69UhM-23">
          <mxGeometry relative="1" as="geometry" />
        </mxCell>
        <mxCell id="1iyHR0BKhRLeMjB69UhM-53" style="edgeStyle=orthogonalEdgeStyle;rounded=0;orthogonalLoop=1;jettySize=auto;html=1;entryX=0.5;entryY=0;entryDx=0;entryDy=0;" edge="1" parent="1" source="1iyHR0BKhRLeMjB69UhM-7" target="1iyHR0BKhRLeMjB69UhM-14">
          <mxGeometry relative="1" as="geometry" />
        </mxCell>
        <mxCell id="1iyHR0BKhRLeMjB69UhM-7" value="Se é aluno, professor, coordenador" style="rhombus;whiteSpace=wrap;html=1;fontColor=#000000;fillColor=#ffffc0;strokeColor=#ff0000;" vertex="1" parent="1">
          <mxGeometry x="30" y="-550" width="170" height="90" as="geometry" />
        </mxCell>
        <mxCell id="1iyHR0BKhRLeMjB69UhM-73" style="edgeStyle=orthogonalEdgeStyle;rounded=0;orthogonalLoop=1;jettySize=auto;html=1;exitX=0.5;exitY=1;exitDx=0;exitDy=0;entryX=0.5;entryY=0;entryDx=0;entryDy=0;" edge="1" parent="1" source="1iyHR0BKhRLeMjB69UhM-14" target="1iyHR0BKhRLeMjB69UhM-54">
          <mxGeometry relative="1" as="geometry" />
        </mxCell>
        <mxCell id="1iyHR0BKhRLeMjB69UhM-14" value="cadastrar o aluno" style="rounded=1;whiteSpace=wrap;html=1;arcSize=40;fontColor=#000000;fillColor=#ffffc0;strokeColor=#ff0000;" vertex="1" parent="1">
          <mxGeometry x="55" y="-410" width="120" height="40" as="geometry" />
        </mxCell>
        <mxCell id="1iyHR0BKhRLeMjB69UhM-17" value="Cadastrar nota" style="rounded=1;whiteSpace=wrap;html=1;arcSize=40;fontColor=#000000;fillColor=#ffffc0;strokeColor=#ff0000;" vertex="1" parent="1">
          <mxGeometry x="610" y="-440" width="120" height="40" as="geometry" />
        </mxCell>
        <mxCell id="1iyHR0BKhRLeMjB69UhM-19" value="cadastrar frequencia" style="rounded=1;whiteSpace=wrap;html=1;arcSize=40;fontColor=#000000;fillColor=#ffffc0;strokeColor=#ff0000;" vertex="1" parent="1">
          <mxGeometry x="610" y="-640" width="120" height="40" as="geometry" />
        </mxCell>
        <mxCell id="1iyHR0BKhRLeMjB69UhM-39" style="edgeStyle=orthogonalEdgeStyle;rounded=0;orthogonalLoop=1;jettySize=auto;html=1;entryX=0;entryY=0.5;entryDx=0;entryDy=0;" edge="1" parent="1" source="1iyHR0BKhRLeMjB69UhM-21" target="1iyHR0BKhRLeMjB69UhM-34">
          <mxGeometry relative="1" as="geometry" />
        </mxCell>
        <mxCell id="1iyHR0BKhRLeMjB69UhM-21" value="cadastro" style="rounded=1;whiteSpace=wrap;html=1;arcSize=40;fontColor=#000000;fillColor=#ffffc0;strokeColor=#ff0000;" vertex="1" parent="1">
          <mxGeometry x="440" y="-540" width="120" height="40" as="geometry" />
        </mxCell>
        <mxCell id="1iyHR0BKhRLeMjB69UhM-46" style="edgeStyle=orthogonalEdgeStyle;rounded=0;orthogonalLoop=1;jettySize=auto;html=1;entryX=0;entryY=0.5;entryDx=0;entryDy=0;" edge="1" parent="1" source="1iyHR0BKhRLeMjB69UhM-23" target="1iyHR0BKhRLeMjB69UhM-44">
          <mxGeometry relative="1" as="geometry" />
        </mxCell>
        <mxCell id="1iyHR0BKhRLeMjB69UhM-23" value="cadastrar o Coordenador" style="rounded=1;whiteSpace=wrap;html=1;arcSize=40;fontColor=#000000;fillColor=#ffffc0;strokeColor=#ff0000;" vertex="1" parent="1">
          <mxGeometry x="280" y="-440" width="120" height="40" as="geometry" />
        </mxCell>
        <mxCell id="1iyHR0BKhRLeMjB69UhM-37" style="edgeStyle=orthogonalEdgeStyle;rounded=0;orthogonalLoop=1;jettySize=auto;html=1;entryX=0;entryY=0.5;entryDx=0;entryDy=0;" edge="1" parent="1" source="1iyHR0BKhRLeMjB69UhM-25" target="1iyHR0BKhRLeMjB69UhM-21">
          <mxGeometry relative="1" as="geometry" />
        </mxCell>
        <mxCell id="1iyHR0BKhRLeMjB69UhM-51" style="edgeStyle=orthogonalEdgeStyle;rounded=0;orthogonalLoop=1;jettySize=auto;html=1;entryX=0.5;entryY=0;entryDx=0;entryDy=0;curved=1;" edge="1" parent="1" source="1iyHR0BKhRLeMjB69UhM-25" target="1iyHR0BKhRLeMjB69UhM-44">
          <mxGeometry relative="1" as="geometry">
            <Array as="points">
              <mxPoint x="340" y="-480" />
              <mxPoint x="500" y="-480" />
            </Array>
          </mxGeometry>
        </mxCell>
        <mxCell id="1iyHR0BKhRLeMjB69UhM-25" value="Cadastrar o Professor" style="rounded=1;whiteSpace=wrap;html=1;arcSize=40;fontColor=#000000;fillColor=#ffffc0;strokeColor=#ff0000;" vertex="1" parent="1">
          <mxGeometry x="280" y="-540" width="120" height="40" as="geometry" />
        </mxCell>
        <mxCell id="1iyHR0BKhRLeMjB69UhM-41" style="rounded=0;orthogonalLoop=1;jettySize=auto;html=1;exitX=0.5;exitY=0;exitDx=0;exitDy=0;entryX=0;entryY=0.5;entryDx=0;entryDy=0;" edge="1" parent="1" source="1iyHR0BKhRLeMjB69UhM-34">
          <mxGeometry relative="1" as="geometry">
            <mxPoint x="722.5" y="-515" as="sourcePoint" />
            <mxPoint x="660" y="-600" as="targetPoint" />
          </mxGeometry>
        </mxCell>
        <mxCell id="1iyHR0BKhRLeMjB69UhM-42" value="Se frequência" style="edgeLabel;html=1;align=center;verticalAlign=middle;resizable=0;points=[];" vertex="1" connectable="0" parent="1iyHR0BKhRLeMjB69UhM-41">
          <mxGeometry x="-0.0589" relative="1" as="geometry">
            <mxPoint as="offset" />
          </mxGeometry>
        </mxCell>
        <mxCell id="1iyHR0BKhRLeMjB69UhM-50" style="rounded=0;orthogonalLoop=1;jettySize=auto;html=1;exitX=0.5;exitY=1;exitDx=0;exitDy=0;entryX=0.5;entryY=0;entryDx=0;entryDy=0;" edge="1" parent="1" source="1iyHR0BKhRLeMjB69UhM-34" target="1iyHR0BKhRLeMjB69UhM-17">
          <mxGeometry relative="1" as="geometry" />
        </mxCell>
        <mxCell id="1iyHR0BKhRLeMjB69UhM-34" value="É nota ou frequência?" style="rhombus;whiteSpace=wrap;html=1;fontColor=#000000;fillColor=#ffffc0;strokeColor=#ff0000;" vertex="1" parent="1">
          <mxGeometry x="590" y="-550" width="110" height="60" as="geometry" />
        </mxCell>
        <mxCell id="1iyHR0BKhRLeMjB69UhM-48" style="edgeStyle=orthogonalEdgeStyle;rounded=0;orthogonalLoop=1;jettySize=auto;html=1;entryX=0.5;entryY=0;entryDx=0;entryDy=0;" edge="1" parent="1" source="1iyHR0BKhRLeMjB69UhM-44" target="1iyHR0BKhRLeMjB69UhM-47">
          <mxGeometry relative="1" as="geometry" />
        </mxCell>
        <mxCell id="1iyHR0BKhRLeMjB69UhM-44" value="Realizar aprovação" style="rounded=1;whiteSpace=wrap;html=1;arcSize=40;fontColor=#000000;fillColor=#ffffc0;strokeColor=#ff0000;" vertex="1" parent="1">
          <mxGeometry x="440" y="-440" width="120" height="40" as="geometry" />
        </mxCell>
        <mxCell id="1iyHR0BKhRLeMjB69UhM-47" value="" style="ellipse;html=1;shape=endState;fillColor=#000000;strokeColor=#ff0000;" vertex="1" parent="1">
          <mxGeometry x="485" y="-325" width="30" height="30" as="geometry" />
        </mxCell>
        <mxCell id="1iyHR0BKhRLeMjB69UhM-57" style="edgeStyle=orthogonalEdgeStyle;rounded=0;orthogonalLoop=1;jettySize=auto;html=1;entryX=0;entryY=0.5;entryDx=0;entryDy=0;" edge="1" parent="1" source="1iyHR0BKhRLeMjB69UhM-54" target="1iyHR0BKhRLeMjB69UhM-47">
          <mxGeometry relative="1" as="geometry">
            <mxPoint x="430" y="-310" as="targetPoint" />
          </mxGeometry>
        </mxCell>
        <mxCell id="1iyHR0BKhRLeMjB69UhM-54" value="Visualizar&amp;nbsp;" style="rounded=1;whiteSpace=wrap;html=1;arcSize=40;fontColor=#000000;fillColor=#ffffc0;strokeColor=#ff0000;" vertex="1" parent="1">
          <mxGeometry x="55" y="-330" width="120" height="40" as="geometry" />
        </mxCell>
        <mxCell id="1iyHR0BKhRLeMjB69UhM-74" value="" style="shape=line;html=1;strokeWidth=6;strokeColor=#ff0000;" vertex="1" parent="1">
          <mxGeometry x="730" y="-380" width="140" height="10" as="geometry" />
        </mxCell>
        <mxCell id="1iyHR0BKhRLeMjB69UhM-75" value="" style="edgeStyle=orthogonalEdgeStyle;html=1;verticalAlign=bottom;endArrow=open;endSize=8;strokeColor=#ff0000;rounded=0;entryX=1;entryY=0.5;entryDx=0;entryDy=0;" edge="1" source="1iyHR0BKhRLeMjB69UhM-74" parent="1" target="1iyHR0BKhRLeMjB69UhM-47">
          <mxGeometry relative="1" as="geometry">
            <mxPoint x="770" y="-300" as="targetPoint" />
            <Array as="points">
              <mxPoint x="800" y="-310" />
            </Array>
          </mxGeometry>
        </mxCell>
        <mxCell id="1iyHR0BKhRLeMjB69UhM-76" style="edgeStyle=orthogonalEdgeStyle;rounded=0;orthogonalLoop=1;jettySize=auto;html=1;entryX=0.25;entryY=0.5;entryDx=0;entryDy=0;entryPerimeter=0;" edge="1" parent="1" source="1iyHR0BKhRLeMjB69UhM-17" target="1iyHR0BKhRLeMjB69UhM-74">
          <mxGeometry relative="1" as="geometry">
            <Array as="points">
              <mxPoint x="765" y="-430" />
            </Array>
          </mxGeometry>
        </mxCell>
        <mxCell id="1iyHR0BKhRLeMjB69UhM-78" style="edgeStyle=orthogonalEdgeStyle;rounded=0;orthogonalLoop=1;jettySize=auto;html=1;entryX=0.75;entryY=0.5;entryDx=0;entryDy=0;entryPerimeter=0;" edge="1" parent="1" source="1iyHR0BKhRLeMjB69UhM-19" target="1iyHR0BKhRLeMjB69UhM-74">
          <mxGeometry relative="1" as="geometry">
            <Array as="points">
              <mxPoint x="830" y="-620" />
              <mxPoint x="830" y="-490" />
              <mxPoint x="835" y="-490" />
            </Array>
          </mxGeometry>
        </mxCell>
      </root>
    </mxGraphModel>
  </diagram>
</mxfile>
